<svg width="159" height="44" viewBox="0 0 159 44" fill="none" xmlns="http://www.w3.org/2000/svg">
<g id="blender_logo 1">
<g id="Group">
<g id="blender_logo_no_socket">
<g id="Group_2">
<g id="Group_3">
<path id="Vector" d="M20.1204 24.015C20.2984 20.8388 21.8538 18.0406 24.2002 16.0569C26.5013 14.1086 29.5985 12.9177 32.9779 12.9177C36.354 12.9177 39.4512 14.1086 41.754 16.0569C44.0987 18.0406 45.6541 20.8388 45.8338 24.0116C46.0118 27.2751 44.7001 30.3069 42.399 32.5542C40.0525 34.8402 36.7151 36.2746 32.9779 36.2746C29.2408 36.2746 25.8966 34.8402 23.5519 32.5542C21.2491 30.3069 19.9407 27.2752 20.1204 24.015Z" fill="white"/>
</g>
<g id="Group_4">
<path id="Vector_2" d="M26.3811 24.3C26.4724 22.6703 27.2705 21.2345 28.4745 20.2167C29.6552 19.217 31.2444 18.606 32.9784 18.606C34.7106 18.606 36.2999 19.217 37.4814 20.2167C38.6845 21.2345 39.4826 22.6703 39.5748 24.2983C39.6661 25.9728 38.9931 27.5284 37.8124 28.6815C36.6084 29.8545 34.8959 30.5905 32.9784 30.5905C31.0608 30.5905 29.3449 29.8545 28.1418 28.6815C26.9602 27.5284 26.2889 25.9728 26.3811 24.3Z" fill="#265787"/>
</g>
<g id="Group_5">
<path id="Vector_3" d="M15.8755 27.5931C15.8867 28.2309 16.0901 29.4702 16.3952 30.438C17.0364 32.4866 18.124 34.3817 19.6374 36.052C21.1904 37.7687 23.1028 39.1476 25.3116 40.1267C27.6334 41.1548 30.1491 41.6788 32.7621 41.6745C35.3709 41.6711 37.8866 41.1367 40.2083 40.1008C42.4172 39.1123 44.3278 37.7274 45.8783 36.0097C47.3908 34.3326 48.4767 32.434 49.1196 30.3855C49.4428 29.3504 49.647 28.2998 49.7289 27.2458C49.8091 26.2073 49.7755 25.1671 49.6281 24.1277C49.3402 22.1024 48.6396 20.2021 47.5605 18.4698C46.5738 16.8781 45.3017 15.4845 43.7892 14.3115L43.7927 14.3089L28.5288 2.58897C28.515 2.57863 28.5039 2.56744 28.4892 2.55796C27.4878 1.78922 25.8037 1.79181 24.7023 2.56228C23.5889 3.34137 23.4613 4.62978 24.4524 5.44248L24.4481 5.4468L30.8144 10.6238L11.4104 10.6445H11.3845C9.78067 10.6462 8.23886 11.6985 7.93377 13.0283C7.62007 14.3831 8.70941 15.5069 10.377 15.5129L10.3745 15.519L20.2096 15.5L2.65939 28.9712C2.63698 28.9876 2.61285 29.0048 2.59216 29.0212C0.936593 30.2889 0.401411 32.397 1.44422 33.7311C2.50254 35.0876 4.75277 35.0902 6.42558 33.7388L16.0039 25.8996C16.0039 25.8996 15.8643 26.958 15.8755 27.5931ZM40.4884 31.137C38.5148 33.1476 35.7518 34.2878 32.7621 34.2938C29.7681 34.299 27.0051 33.1692 25.0315 31.162C24.0672 30.1838 23.3587 29.0583 22.9218 27.8595C22.4935 26.6813 22.3271 25.4308 22.4375 24.1691C22.5417 22.9358 22.9089 21.7594 23.4949 20.6951C24.0706 19.6488 24.8635 18.7034 25.8425 17.9036C27.761 16.3403 30.2034 15.494 32.7578 15.4905C35.3149 15.4871 37.7556 16.3256 39.6757 17.8838C40.653 18.6801 41.445 19.6221 42.0207 20.6666C42.6094 21.7301 42.9739 22.9022 43.0825 24.1389C43.1911 25.3989 43.0248 26.6477 42.5964 27.8267C42.1586 29.029 41.4528 30.1545 40.4884 31.137Z" fill="#EA7600"/>
</g>
<g id="Group_6">
<path id="Vector_4" d="M130.953 24.2733C131.1 22.629 132.371 21.5861 134.313 21.5861C136.257 21.5861 137.527 22.629 137.675 24.2733H130.953ZM137.476 28.3334C136.978 29.552 135.806 30.2734 134.215 30.2734C132.221 30.2734 130.879 29.0289 130.825 27.0631H142.285V26.4848C142.285 21.5603 139.394 18.793 134.215 18.793C129.185 18.793 126.144 21.5862 126.144 25.9668C126.144 30.3742 129.232 33.1631 134.215 33.1631C137.204 33.1631 139.523 32.1384 140.951 30.3371L137.476 28.3334Z" fill="#265787"/>
</g>
<g id="Group_7">
<path id="Vector_5" d="M80.1056 24.281C80.2573 22.6366 81.5285 21.5938 83.4719 21.5938C85.4128 21.5938 86.6831 22.6366 86.8322 24.281H80.1056ZM86.6331 28.3411C86.135 29.5631 84.9638 30.2845 83.3685 30.2845C81.3786 30.2845 80.0332 29.0366 79.9807 27.0699H91.4378V26.495C91.4378 21.568 88.5481 18.7998 83.3685 18.7998C78.3363 18.7998 75.301 21.5938 75.301 25.9745C75.301 30.3819 78.388 33.1707 83.3685 33.1707C86.3573 33.1707 88.6774 32.1495 90.1089 30.3457L86.6331 28.3411Z" fill="#265787"/>
</g>
<g id="Group_8">
<path id="Vector_6" d="M74.2746 15.8154H70.1422V32.7219H74.2746V15.8154Z" fill="#265787"/>
</g>
<g id="Group_9">
<path id="Vector_7" d="M92.4659 20.3073H96.6217V21.314C98.0928 19.7437 99.8595 18.95 101.852 18.95C104.147 18.95 105.885 19.7437 106.782 21.095C107.531 22.2111 107.58 23.5581 107.58 25.3283V32.7219H103.418V26.2255C103.418 23.5297 102.876 22.2852 100.509 22.2852C98.1178 22.2852 96.6217 23.7098 96.6217 26.1014V32.7219H92.4659V20.3073Z" fill="#265787"/>
</g>
<g id="Group_10">
<path id="Vector_8" d="M120.963 26.1761C120.963 28.4901 119.417 30.0078 117.025 30.0078C114.63 30.0078 113.084 28.5419 113.084 26.2029C113.084 23.8294 114.61 22.3643 117.025 22.3643C119.417 22.3643 120.963 23.8552 120.963 26.1761ZM120.963 20.8699C119.913 19.7435 118.392 19.1255 116.279 19.1255C111.72 19.1255 108.607 21.9368 108.607 26.1503C108.607 30.281 111.698 33.1707 116.204 33.1707C118.27 33.1707 119.787 32.6485 120.963 31.4772V32.7217H125.121V14.7432L120.963 15.8153V20.8699Z" fill="#265787"/>
</g>
<g id="Group_11">
<path id="Vector_9" d="M60.6965 22.3643C63.113 22.3643 64.6324 23.8294 64.6324 26.2029C64.6324 28.5419 63.0889 30.0078 60.6965 30.0078C58.3058 30.0078 56.7614 28.4901 56.7614 26.1761C56.7614 23.8552 58.3058 22.3643 60.6965 22.3643ZM56.7614 15.8153L52.6013 14.7432V32.7217H56.7614V31.4772C57.9317 32.6485 59.4511 33.1707 61.5187 33.1707C66.0269 33.1707 69.1139 30.281 69.1139 26.1503C69.1139 21.9368 66.0001 19.1255 61.4437 19.1255C59.3262 19.1255 57.8068 19.7435 56.7614 20.8699V15.8153Z" fill="#265787"/>
</g>
<g id="Group_12">
<path id="Vector_10" d="M143.31 32.7219V20.3073H147.469V21.0743C148.714 19.5747 150.032 18.8284 151.53 18.8284C151.828 18.8284 152.202 18.8766 152.699 18.9258V22.4653C152.298 22.4127 151.852 22.4127 151.378 22.4127C148.96 22.4127 147.469 24.0071 147.469 26.7184V32.7219H143.31Z" fill="#265787"/>
</g>
<g id="Group_13">
<path id="&#194;&#174;" d="M156.252 18.0958H156.4C156.506 18.0958 156.586 18.0707 156.64 18.0206C156.695 17.9705 156.722 17.8989 156.722 17.8058C156.722 17.7027 156.695 17.6311 156.643 17.591C156.591 17.5495 156.509 17.5287 156.395 17.5287H156.252V18.0958ZM157.13 17.7972C157.13 18.0421 157.021 18.2089 156.801 18.2977L157.311 19.1505H156.857L156.445 18.4072H156.252V19.1505H155.846V17.2108H156.408C156.658 17.2108 156.84 17.2595 156.956 17.3568C157.072 17.4542 157.13 17.601 157.13 17.7972ZM154.86 18.1795C154.86 17.8931 154.931 17.6246 155.074 17.374C155.218 17.1234 155.415 16.9258 155.665 16.7812C155.916 16.6365 156.186 16.5642 156.475 16.5642C156.761 16.5642 157.03 16.6358 157.28 16.779C157.531 16.9222 157.729 17.1191 157.873 17.3697C158.018 17.6203 158.09 17.8903 158.09 18.1795C158.09 18.4617 158.021 18.7266 157.882 18.9743C157.743 19.2221 157.548 19.4204 157.298 19.5693C157.047 19.7183 156.773 19.7927 156.475 19.7927C156.179 19.7927 155.905 19.719 155.654 19.5715C155.404 19.4226 155.208 19.2242 155.068 18.9765C154.929 18.7287 154.86 18.4631 154.86 18.1795ZM155.124 18.1795C155.124 18.423 155.184 18.6493 155.304 18.8583C155.426 19.066 155.591 19.2299 155.8 19.3502C156.01 19.4705 156.234 19.5307 156.475 19.5307C156.718 19.5307 156.945 19.4698 157.154 19.3481C157.363 19.2249 157.527 19.0603 157.646 18.854C157.766 18.6464 157.826 18.4216 157.826 18.1795C157.826 17.939 157.765 17.7141 157.644 17.5051C157.523 17.2945 157.358 17.1291 157.147 17.0089C156.938 16.8886 156.714 16.8284 156.475 16.8284C156.234 16.8284 156.01 16.8878 155.803 17.0067C155.596 17.1256 155.432 17.2895 155.309 17.4986C155.185 17.7077 155.124 17.9347 155.124 18.1795Z" fill="#236192"/>
</g>
</g>
</g>
</g>
</g>
</svg>
