<svg width="54" height="54" viewBox="0 0 54 54" fill="none" xmlns="http://www.w3.org/2000/svg">
<g id="camera_alt">
<path id="Vector" d="M45 11.25H37.8675L33.75 6.75H20.25L16.1325 11.25H9C6.525 11.25 4.5 13.275 4.5 15.75V42.75C4.5 45.225 6.525 47.25 9 47.25H45C47.475 47.25 49.5 45.225 49.5 42.75V15.75C49.5 13.275 47.475 11.25 45 11.25ZM45 42.75H9V15.75H18.1125L22.23 11.25H31.77L35.8875 15.75H45V42.75ZM27 18C20.79 18 15.75 23.04 15.75 29.25C15.75 35.46 20.79 40.5 27 40.5C33.21 40.5 38.25 35.46 38.25 29.25C38.25 23.04 33.21 18 27 18ZM27 36C23.2875 36 20.25 32.9625 20.25 29.25C20.25 25.5375 23.2875 22.5 27 22.5C30.7125 22.5 33.75 25.5375 33.75 29.25C33.75 32.9625 30.7125 36 27 36Z" fill="#25C389"/>
</g>
</svg>
