<svg width="58" height="58" viewBox="0 0 58 58" fill="none" xmlns="http://www.w3.org/2000/svg">
<g id="draw">
<path id="Vector" d="M46.1644 25.1092L48.7261 22.5475C50.6111 20.6625 50.6111 17.5933 48.7261 15.7083L45.3186 12.3008C43.4336 10.4158 40.3644 10.4158 38.4794 12.3008L35.9177 14.8625L46.1644 25.1092ZM35.9177 28.5408L18.5177 45.9167H15.1102V42.5092L32.4861 25.1333L35.9177 28.5408ZM32.4861 18.27L10.2769 40.5033V50.75H20.5236L42.7327 28.5408L32.4861 18.27ZM46.5269 42.2917C46.5269 47.5842 40.3886 50.75 34.4436 50.75C33.1144 50.75 32.0269 49.6625 32.0269 48.3333C32.0269 47.0042 33.1144 45.9167 34.4436 45.9167C38.1652 45.9167 41.6936 44.1525 41.6936 42.2917C41.6936 41.1558 40.5336 40.1892 38.7211 39.3917L42.2977 35.815C44.8836 37.3375 46.5269 39.3675 46.5269 42.2917ZM11.6786 32.2625C9.3344 30.9092 7.86023 29.145 7.86023 26.5833C7.86023 22.2333 12.4277 20.2275 16.4636 18.4633C18.9527 17.3517 22.3602 15.8533 22.3602 14.5C22.3602 13.5092 20.4752 12.0833 17.5269 12.0833C14.4819 12.0833 13.1769 13.5575 13.1044 13.63C12.2586 14.6208 10.7361 14.7417 9.72106 13.92C8.73023 13.0983 8.5369 11.6242 9.35856 10.585C9.6244 10.2467 12.1136 7.25 17.5269 7.25C22.9402 7.25 27.1936 10.44 27.1936 14.5C27.1936 19.0192 22.5294 21.0733 18.3969 22.8858C16.1252 23.8767 12.6936 25.375 12.6936 26.5833C12.6936 27.3325 13.7327 28.0333 15.2794 28.6617L11.6786 32.2625Z" fill="#1596BD"/>
</g>
</svg>
