<svg width="60" height="60" viewBox="0 0 60 60" fill="none" xmlns="http://www.w3.org/2000/svg">
<g id="lightbulb">
<path id="Vector" d="M22.5 52.5C22.5 53.875 23.625 55 25 55H35C36.375 55 37.5 53.875 37.5 52.5V50H22.5V52.5ZM30 5C20.35 5 12.5 12.85 12.5 22.5C12.5 28.45 15.475 33.675 20 36.85V42.5C20 43.875 21.125 45 22.5 45H37.5C38.875 45 40 43.875 40 42.5V36.85C44.525 33.675 47.5 28.45 47.5 22.5C47.5 12.85 39.65 5 30 5ZM37.125 32.75L35 34.25V40H25V34.25L22.875 32.75C19.5 30.4 17.5 26.575 17.5 22.5C17.5 15.6 23.1 10 30 10C36.9 10 42.5 15.6 42.5 22.5C42.5 26.575 40.5 30.4 37.125 32.75Z" fill="#FFB901"/>
</g>
</svg>
