<svg width="143" height="44" viewBox="0 0 143 44" fill="none" xmlns="http://www.w3.org/2000/svg">
<g id="penpot 1" clip-path="url(#clip0_34_397)">
<path id="Vector" d="M8.7406 0L4.08644 6.51674V10.2004L0.0365022 12.1155L0 12.0985V36.1312L15.7901 43.5473L16.7549 44L17.7199 43.5473L33.5098 36.1312V12.0985L33.48 12.1124L29.4291 10.1967V6.51674L29.2873 6.31856L24.7746 0L20.1204 6.51674V6.52317L16.7337 1.78135L13.3734 6.48675L13.2531 6.31856L8.7406 0ZM9.56397 3.78545L11.3641 6.3057H6.1171L7.89626 3.81505L9.56397 3.78545ZM25.5978 3.78545L27.3983 6.3057H22.1511L23.9299 3.81505L25.5978 3.78545ZM17.557 5.56706L19.3572 8.08718H14.1106L15.8893 5.5964L17.557 5.56706ZM5.61953 7.57592H8.10802V15.9064L5.61953 14.7376V7.57592ZM9.38573 7.57592H11.8619V17.6691L9.38573 16.5064V7.57592ZM21.6538 7.57592H24.1422V16.4977L21.6538 17.6664V7.57592ZM25.4196 7.57592H27.8956V14.7348L25.4196 15.8976V7.57592ZM13.6127 9.35727H16.1014V19.6602L13.6127 18.4913V9.35727ZM17.3791 9.35727H19.8549V18.5114L17.3791 19.6744V9.35727ZM135.674 10.2668L135.662 14.9045L133.16 14.8875V16.7772H135.669V26.7402C135.669 27.4659 135.726 28.1389 135.842 28.7591L135.843 28.7645L135.844 28.77C135.986 29.4037 136.225 29.9561 136.567 30.4171C136.911 30.8819 137.372 31.2392 137.929 31.4804C138.496 31.7488 139.187 31.8741 139.997 31.8741C140.367 31.8741 140.79 31.8143 141.274 31.6996C141.765 31.5829 142.247 31.4345 142.718 31.2554L143 31.1486L142.392 29.3364L142.073 29.4827C141.454 29.7494 140.847 29.949 140.198 29.9526C139.675 29.9526 139.264 29.878 138.963 29.7491C138.676 29.5946 138.454 29.4008 138.286 29.1603C138.11 28.8869 137.98 28.5725 137.899 28.2111C137.836 27.8114 137.803 27.366 137.803 26.8734V16.7771H142.452V14.8891H137.803V10.2668H135.674ZM29.4285 12.0951L31.6196 12.9857L29.4285 14.0147V12.0951ZM4.08644 12.0985V14.0178L1.89591 12.9888L4.08644 12.0985ZM106.758 14.4895L106.758 14.4898V14.49C105.703 14.49 104.68 14.7482 103.702 15.2572L103.701 15.2581L103.699 15.2588C102.91 15.68 102.251 16.1198 101.558 16.6395L101.545 14.8892H99.4864V38.6916H101.586V30.1835C102.275 30.6501 102.954 31.0547 103.62 31.3488L103.623 31.3503L103.627 31.3519C104.462 31.6978 105.285 31.8744 106.089 31.8744C107.068 31.8744 108.006 31.6765 108.893 31.2821L108.895 31.2814L108.897 31.2805C109.806 30.8633 110.601 30.2698 111.275 29.5073L111.275 29.5075C111.973 28.721 112.517 27.7753 112.908 26.6786C113.301 25.5752 113.494 24.3309 113.494 22.9495C113.494 20.4229 112.949 18.3792 111.83 16.8483L111.829 16.8476C110.701 15.2823 108.971 14.4895 106.758 14.4895ZM55.9024 14.49C54.8477 14.49 53.8241 14.7482 52.8467 15.2572L52.8451 15.2581L52.8438 15.2588C52.054 15.68 51.395 16.12 50.7021 16.6398L50.6897 14.8892H48.6308V38.6918H50.7307V30.1838C51.4188 30.6505 52.0986 31.0549 52.7642 31.349L52.7676 31.3506L52.7711 31.3522C53.6063 31.6982 54.4291 31.8748 55.2334 31.8748C56.2124 31.8748 57.1508 31.6767 58.0376 31.2823L58.0392 31.2814L58.0411 31.2808C58.9502 30.8637 59.7457 30.2701 60.4198 29.5075L60.4192 29.5078C61.1171 28.7214 61.6613 27.7757 62.0519 26.679C62.4451 25.5755 62.6386 24.3311 62.6386 22.9499C62.6386 20.4233 62.0934 18.3796 60.9741 16.8486L60.9737 16.848C59.8456 15.2831 58.1158 14.4902 55.9024 14.49ZM90.0934 14.49C88.9274 14.49 87.8704 14.7834 86.9501 15.3689C86.1987 15.8288 85.4706 16.4147 84.757 17.0791L84.7717 14.8892H82.7546V31.4755H84.8551V19.4408C85.7869 18.503 86.6261 17.6148 87.3507 17.162L87.3533 17.1602L87.3559 17.1585C88.0869 16.6808 88.8895 16.445 89.7923 16.445C91.0423 16.445 91.8484 16.8118 92.3417 17.5377L92.3444 17.5416L92.3475 17.5459C92.865 18.2582 93.1575 19.4488 93.1575 21.1206V31.4755H95.2577V20.9209C95.2577 18.7982 94.8664 17.1879 94.0208 16.1069C93.1736 15.0241 91.8287 14.49 90.0934 14.49ZM72.8253 14.49C71.8872 14.49 70.9697 14.7011 70.0848 15.1172L70.0835 15.1179C69.218 15.5134 68.4362 16.095 67.7424 16.8537L67.7421 16.8539C67.0658 17.5958 66.5226 18.5067 66.1095 19.5789L66.1083 19.5817L66.1074 19.5844C65.7141 20.6658 65.5199 21.8776 65.5199 23.2155C65.5199 24.5535 65.7141 25.7654 66.1076 26.8468L66.1086 26.8505L66.1103 26.8542C66.524 27.9052 67.079 28.8156 67.7759 29.5777L67.7777 29.5792L67.7792 29.5811C68.4769 30.3209 69.2957 30.891 70.2269 31.2845L70.2282 31.2849L70.2296 31.2853C71.1823 31.6779 72.1955 31.8743 73.2601 31.8743C74.4701 31.8743 75.4811 31.7063 76.294 31.3505L76.2956 31.3495C77.0861 31.0127 77.8108 30.6525 78.4698 30.2686L78.7296 30.1174L77.8155 28.4011L77.5216 28.6174C76.9438 29.043 76.3739 29.3077 75.6877 29.5638C75.0362 29.7931 74.2328 29.9107 73.3938 29.9107C72.5197 29.9107 71.7434 29.8283 71.0532 29.5172C70.3561 29.1807 69.7582 28.7317 69.2516 28.1664C68.7664 27.5781 68.3838 26.8834 68.1054 26.0745L68.1051 26.0739C67.8581 25.3368 67.7283 24.5385 67.6829 23.6946H79.2613C79.2613 23.369 79.2928 23.0565 79.2939 22.7835V22.1849C79.2939 19.7869 78.7344 17.887 77.5808 16.5296C76.4295 15.175 74.8136 14.4902 72.8251 14.4902L72.8253 14.49ZM123.72 14.49C122.72 14.49 121.76 14.6877 120.852 15.0813C119.943 15.4751 119.137 16.045 118.44 16.7835L118.439 16.7855L118.437 16.7873C117.759 17.5304 117.216 18.4533 116.803 19.5478L116.802 19.5493L116.802 19.5512C116.408 20.6331 116.214 21.8559 116.214 23.2155C116.214 24.5751 116.408 25.7981 116.802 26.8801L116.803 26.8838L116.805 26.8876C117.218 27.9373 117.761 28.8366 118.436 29.5774L118.438 29.5791L118.44 29.5811C119.137 30.3198 119.943 30.8893 120.852 31.2831C121.76 31.6769 122.72 31.8744 123.72 31.8744C124.721 31.8744 125.68 31.6767 126.589 31.2831C127.519 30.8897 128.327 30.3195 129.002 29.5793C129.701 28.8375 130.246 27.9357 130.637 26.8834C131.054 25.8004 131.26 24.576 131.26 23.2155C131.26 21.8556 131.054 20.6317 130.638 19.5492C130.247 18.4536 129.703 17.5289 129.002 16.7851C128.326 16.0452 127.519 15.4747 126.589 15.0813C125.68 14.6877 124.721 14.49 123.72 14.49H123.72ZM1.9297 15.1265L15.7901 21.6359V41.4252L1.92957 34.9159L1.9297 15.1265ZM31.58 15.1265V34.9159L17.7199 41.4252V21.6358L31.58 15.1265ZM72.8583 16.3783H72.8585C74.2338 16.3783 75.2704 16.8422 76.0618 17.7946L76.0624 17.7959L76.0634 17.7974C76.7987 18.6632 77.1994 20.0245 77.2431 21.8725H67.7067C67.8064 21.0902 67.972 20.3718 68.2313 19.7454C68.553 19.0218 68.9459 18.4115 69.4087 17.9091C69.8949 17.4055 70.4265 17.0338 71.0086 16.7857L71.0128 16.7837L71.0171 16.7817C71.6013 16.5121 72.2108 16.3784 72.8581 16.3784L72.8583 16.3783ZM55.6683 16.4116C56.5417 16.4116 57.2661 16.5802 57.8579 16.9049L57.8617 16.9068L57.8655 16.9089C58.4648 17.2171 58.9437 17.6521 59.3174 18.2301L59.3191 18.2324L59.3205 18.2344C59.696 18.7946 59.9725 19.4762 60.1441 20.2869L60.1448 20.2909L60.1461 20.2948C60.3404 21.1107 60.4386 21.9954 60.4386 22.9496C60.4386 24.0083 60.2972 24.9731 60.0183 25.8479L60.0174 25.8502L60.0168 25.8526C59.7584 26.7089 59.3954 27.4384 58.9302 28.048C58.4658 28.6567 57.9128 29.1225 57.2634 29.4557C56.6162 29.7877 55.9228 29.9529 55.1665 29.9529C54.5945 29.9529 53.9169 29.8089 53.1397 29.5086C52.4121 29.2271 51.6032 28.5358 50.7311 27.848V19.0131C51.6561 18.2294 52.5189 17.4859 53.306 17.074L53.3073 17.0736L53.3086 17.0727C54.1427 16.6262 54.9266 16.4116 55.6683 16.4116ZM106.524 16.4114L106.524 16.4116C107.397 16.4116 108.122 16.5802 108.714 16.9049L108.717 16.9068L108.721 16.9089C109.32 17.2171 109.799 17.6521 110.173 18.2301L110.175 18.2324L110.176 18.2344C110.552 18.7946 110.828 19.4762 111 20.2869L111 20.2909L111.002 20.2948C111.196 21.1107 111.294 21.9954 111.294 22.9496C111.294 24.0083 111.153 24.9731 110.874 25.8479L110.873 25.8502L110.872 25.8526C110.614 26.7089 110.251 27.4384 109.786 28.048C109.321 28.6567 108.768 29.1225 108.119 29.4557C107.472 29.7877 106.778 29.9529 106.022 29.9529C105.45 29.9529 104.772 29.8089 103.995 29.5086C103.267 29.2271 102.459 28.5358 101.586 27.848V19.0131C102.511 18.2294 103.374 17.4859 104.161 17.074L104.163 17.0733L104.164 17.0727C104.998 16.6262 105.782 16.4115 106.524 16.4115V16.4114ZM123.72 16.4114V16.4116C124.477 16.4116 125.17 16.577 125.817 16.9091L125.823 16.9117L125.828 16.9143C126.496 17.2257 127.056 17.6779 127.518 18.2835L127.521 18.2882L127.525 18.2927C128.011 18.8808 128.394 19.5879 128.674 20.4213C128.952 21.2495 129.093 22.1796 129.093 23.2156C129.093 24.2287 128.952 25.1476 128.674 25.9765C128.394 26.81 128.011 27.5168 127.525 28.1049L127.523 28.1076L127.521 28.1104C127.058 28.6954 126.496 29.1511 125.823 29.4859C125.175 29.7973 124.479 29.9528 123.72 29.9528C122.963 29.9528 122.267 29.7974 121.62 29.4868C120.969 29.1522 120.404 28.6949 119.918 28.1069C119.453 27.5187 119.08 26.8106 118.8 25.9765C118.522 25.1475 118.381 24.2287 118.381 23.2155C118.381 22.1796 118.523 21.2495 118.8 20.4213C119.08 19.5861 119.454 18.8773 119.919 18.2887L119.919 18.2883L119.92 18.2874C120.406 17.6781 120.969 17.2236 121.616 16.9125L121.62 16.9105L121.623 16.909C122.27 16.5769 122.964 16.4115 123.72 16.4115L123.72 16.4114Z" fill="black"/>
</g>
<defs>
<clipPath id="clip0_34_397">
<rect width="143" height="44" fill="white"/>
</clipPath>
</defs>
</svg>
