<svg width="54" height="54" viewBox="0 0 54 54" fill="none" xmlns="http://www.w3.org/2000/svg">
<g id="touch_app">
<path id="Vector" d="M41.0935 29.115L33.8035 25.47C36.706 23.22 38.5735 19.71 38.5735 15.75C38.5735 8.9325 33.016 3.375 26.1985 3.375C19.381 3.375 13.8235 8.9325 13.8235 15.75C13.8235 20.5425 16.5685 24.705 20.5735 26.7525V34.0875C15.736 33.0525 16.0285 33.0975 15.4885 33.0975C14.296 33.0975 13.171 33.57 12.316 34.425L9.16602 37.62L20.6185 49.0725C21.586 50.0625 22.936 50.625 24.331 50.625H38.506C40.711 50.625 42.5785 49.05 42.9385 46.8675L44.7385 36.27C45.2335 33.345 43.771 30.465 41.0935 29.115ZM40.306 35.5275L38.506 46.125H24.331C24.1285 46.125 23.9485 46.035 23.791 45.9L15.511 37.62L25.0735 39.6225V15.75C25.0735 15.12 25.5685 14.625 26.1985 14.625C26.8285 14.625 27.3235 15.12 27.3235 15.75V29.25H31.2835L39.0685 33.1425C39.9685 33.5925 40.4635 34.56 40.306 35.5275ZM18.3235 15.75C18.3235 11.4075 21.856 7.875 26.1985 7.875C30.541 7.875 34.0735 11.4075 34.0735 15.75C34.0735 17.8875 33.2185 19.8225 31.8235 21.24V15.75C31.8235 12.645 29.3035 10.125 26.1985 10.125C23.0935 10.125 20.5735 12.645 20.5735 15.75V21.24C19.1785 19.8225 18.3235 17.8875 18.3235 15.75Z" fill="#DE6262"/>
</g>
</svg>
